# xmcd
#
# Track frame offsets: 
#        150
#        17887
#        39727
#        67329
#        89655
#        113446
#        136354
#        157210
#        183988
#        213725
#
# Disc length: 3287 seconds
#
# Revision: 1
# Processed by: cddbd v1.5.2PL0 Copyright (c) Steve Scherf et al.
# Submitted via: ExactAudioCopy v0.99pb5
#
DISCID=980cd50a
DTITLE=Various Artist - Wellness Box II [CD1)
DYEAR=2007
DGENRE=Instrumental
TTITLE0=Lina Bostrom - Drawn From Life 
TTITLE1=Jasper Johannson - Get Into The Day 
TTITLE2=Lina Bostrom - Cooling Down 
TTITLE3=Jasper Johannson - Clear Thoughts 
TTITLE4=Lina Bostrom - Come On 
TTITLE5=Jasper Johannson - Grassland 
TTITLE6=Lina Bostrom - New Dimensions 
TTITLE7=Jasper Johannson - Strong Like A Tree 
TTITLE8=Lina Bostrom - Powerful Day 
TTITLE9=Lina Bostrom - Beginning Of The Night 
EXTD=
EXTT0=
EXTT1=
EXTT2=
EXTT3=
EXTT4=
EXTT5=
EXTT6=
EXTT7=
EXTT8=
EXTT9=
PLAYORDER=
